# Blender 4.3.2
# www.blender.org
mtllib glass.mtl
o Plane001
v -2.500000 -0.659339 -2.500000
v -2.500000 -0.659339 2.500000
v 2.500000 -0.659339 -2.500000
v 2.500000 -0.659339 2.500000
vn -0.0000 1.0000 -0.0000
vt 0.000000 1.000000
vt 0.000000 0.000000
vt 1.000000 1.000000
vt 1.000000 0.000000
s 1
usemtl Material__26
f 1/1/1 2/2/1 3/3/1
f 4/4/1 3/3/1 2/2/1
o pCylinder1_lambert1_0
v 0.320985 -0.425531 -0.167877
v 0.385057 -0.425531 -0.042129
v -0.043951 -0.455263 0.097265
v 0.221190 -0.425531 -0.267671
v 0.095442 -0.425531 -0.331743
v -0.043951 -0.425531 -0.353820
v -0.183344 -0.425531 -0.331743
v -0.309092 -0.425531 -0.267671
v -0.408886 -0.425531 -0.167876
v -0.472959 -0.425531 -0.042129
v -0.495036 -0.425531 0.097265
v -0.472959 -0.425530 0.236658
v -0.408886 -0.425530 0.362406
v -0.309092 -0.425530 0.462200
v -0.183344 -0.425530 0.526272
v -0.043951 -0.425530 0.548350
v 0.095442 -0.425530 0.526272
v 0.221190 -0.425530 0.462200
v 0.320984 -0.425530 0.362406
v 0.385056 -0.425530 0.236658
v 0.407134 -0.425531 0.097265
v 0.385057 0.464686 -0.042129
v 0.320985 0.464686 -0.167877
v -0.043951 0.494419 0.097265
v 0.221190 0.464686 -0.267671
v 0.095442 0.464686 -0.331743
v -0.043951 0.464686 -0.353820
v -0.183344 0.464686 -0.331743
v -0.309092 0.464686 -0.267671
v -0.408886 0.464686 -0.167876
v -0.472959 0.464686 -0.042129
v -0.495036 0.464686 0.097265
v -0.472959 0.464686 0.236658
v -0.408886 0.464686 0.362406
v -0.309092 0.464686 0.462200
v -0.183344 0.464686 0.526272
v -0.043951 0.464686 0.548350
v 0.095442 0.464686 0.526272
v 0.221190 0.464686 0.462200
v 0.320984 0.464686 0.362406
v 0.385056 0.464686 0.236658
v 0.407134 0.464686 0.097265
v 0.266523 -0.364189 -0.128308
v -0.043951 -0.364189 0.097265
v 0.321034 -0.364189 -0.021326
v 0.181622 -0.364189 -0.213210
v 0.074640 -0.364189 -0.267720
v -0.043951 -0.364189 -0.286503
v -0.162542 -0.364189 -0.267720
v -0.269524 -0.364189 -0.213210
v -0.354425 -0.364189 -0.128308
v -0.408935 -0.364189 -0.021326
v -0.427719 -0.364189 0.097265
v -0.408935 -0.364189 0.215855
v -0.354425 -0.364189 0.322837
v -0.269524 -0.364189 0.407739
v -0.162542 -0.364189 0.462249
v -0.043951 -0.364189 0.481032
v 0.074640 -0.364189 0.462249
v 0.181622 -0.364189 0.407739
v 0.266523 -0.364189 0.322837
v 0.321033 -0.364189 0.215855
v 0.339816 -0.364189 0.097265
v 0.321034 0.403345 -0.021326
v -0.043951 0.403345 0.097265
v 0.266523 0.403345 -0.128308
v 0.181622 0.403345 -0.213210
v 0.074640 0.403345 -0.267720
v -0.043951 0.403345 -0.286503
v -0.162542 0.403345 -0.267720
v -0.269524 0.403345 -0.213210
v -0.354425 0.403345 -0.128308
v -0.408935 0.403345 -0.021326
v -0.427719 0.403345 0.097265
v -0.408935 0.403345 0.215855
v -0.354425 0.403345 0.322837
v -0.269524 0.403345 0.407739
v -0.162542 0.403345 0.462249
v -0.043951 0.403345 0.481032
v 0.074640 0.403345 0.462249
v 0.181622 0.403345 0.407739
v 0.266523 0.403345 0.322837
v 0.321033 0.403345 0.215855
v 0.339816 0.403345 0.097265
v 0.385057 -0.425531 -0.042129
v 0.320985 -0.425531 -0.167877
v 0.320985 0.464686 -0.167877
v 0.385057 0.464686 -0.042129
v 0.221190 -0.425531 -0.267671
v 0.221190 0.464686 -0.267671
v 0.221190 -0.425531 -0.267671
v 0.095442 -0.425531 -0.331743
v 0.095442 0.464686 -0.331743
v 0.221190 0.464686 -0.267671
v -0.043951 -0.425531 -0.353820
v -0.043951 0.464686 -0.353820
v -0.183344 -0.425531 -0.331743
v -0.183344 0.464686 -0.331743
v -0.309092 -0.425531 -0.267671
v -0.309092 0.464686 -0.267671
v -0.309092 -0.425531 -0.267671
v -0.408886 -0.425531 -0.167876
v -0.408886 0.464686 -0.167876
v -0.309092 0.464686 -0.267671
v -0.472959 -0.425531 -0.042129
v -0.472959 0.464686 -0.042129
v -0.495036 -0.425531 0.097265
v -0.495036 0.464686 0.097265
v -0.472959 -0.425530 0.236658
v -0.472959 0.464686 0.236658
v -0.408886 -0.425530 0.362406
v -0.408886 0.464686 0.362406
v -0.309092 -0.425530 0.462200
v -0.309092 0.464686 0.462200
v -0.309092 -0.425530 0.462200
v -0.183344 -0.425530 0.526272
v -0.183344 0.464686 0.526272
v -0.309092 0.464686 0.462200
v -0.043951 -0.425530 0.548350
v -0.043951 0.464686 0.548350
v 0.095442 -0.425530 0.526272
v 0.095442 0.464686 0.526272
v 0.221190 -0.425530 0.462200
v 0.221190 0.464686 0.462200
v 0.221190 -0.425530 0.462200
v 0.320984 -0.425530 0.362406
v 0.320984 0.464686 0.362406
v 0.221190 0.464686 0.462200
v 0.385056 -0.425530 0.236658
v 0.385056 0.464686 0.236658
v 0.407134 -0.425531 0.097265
v 0.407134 0.464686 0.097265
v 0.321034 -0.364189 -0.021326
v 0.321034 0.403345 -0.021326
v 0.266523 0.403345 -0.128308
v 0.266523 -0.364189 -0.128308
v 0.181622 0.403345 -0.213210
v 0.181622 -0.364189 -0.213210
v 0.181622 -0.364189 -0.213210
v 0.181622 0.403345 -0.213210
v 0.074640 0.403345 -0.267720
v 0.074640 -0.364189 -0.267720
v -0.043951 0.403345 -0.286503
v -0.043951 -0.364189 -0.286503
v -0.162542 0.403345 -0.267720
v -0.162542 -0.364189 -0.267720
v -0.269524 0.403345 -0.213210
v -0.269524 -0.364189 -0.213210
v -0.269524 -0.364189 -0.213210
v -0.269524 0.403345 -0.213210
v -0.354425 0.403345 -0.128308
v -0.354425 -0.364189 -0.128308
v -0.408935 0.403345 -0.021326
v -0.408935 -0.364189 -0.021326
v -0.427719 0.403345 0.097265
v -0.427719 -0.364189 0.097265
v -0.408935 0.403345 0.215855
v -0.408935 -0.364189 0.215855
v -0.354425 0.403345 0.322837
v -0.354425 -0.364189 0.322837
v -0.269524 0.403345 0.407739
v -0.269524 -0.364189 0.407739
v -0.269524 -0.364189 0.407739
v -0.269524 0.403345 0.407739
v -0.162542 0.403345 0.462249
v -0.162542 -0.364189 0.462249
v -0.043951 0.403345 0.481032
v -0.043951 -0.364189 0.481032
v 0.074640 0.403345 0.462249
v 0.074640 -0.364189 0.462249
v 0.181622 0.403345 0.407739
v 0.181622 -0.364189 0.407739
v 0.181622 -0.364189 0.407739
v 0.181622 0.403345 0.407739
v 0.266523 0.403345 0.322837
v 0.266523 -0.364189 0.322837
v 0.321033 0.403345 0.215855
v 0.321033 -0.364189 0.215855
v 0.339816 0.403345 0.097265
v 0.339816 -0.364189 0.097265
vn 0.0532 -0.9978 -0.0387
vn 0.0626 -0.9978 -0.0203
vn -0.0000 -1.0000 -0.0000
vn 0.0387 -0.9978 -0.0532
vn 0.0203 -0.9978 -0.0626
vn -0.0000 -0.9978 -0.0658
vn -0.0203 -0.9978 -0.0626
vn -0.0387 -0.9978 -0.0532
vn -0.0532 -0.9978 -0.0387
vn -0.0626 -0.9978 -0.0203
vn -0.0658 -0.9978 -0.0000
vn -0.0626 -0.9978 0.0203
vn -0.0532 -0.9978 0.0387
vn -0.0387 -0.9978 0.0532
vn -0.0203 -0.9978 0.0626
vn -0.0000 -0.9978 0.0658
vn 0.0203 -0.9978 0.0626
vn 0.0387 -0.9978 0.0532
vn 0.0532 -0.9978 0.0387
vn 0.0626 -0.9978 0.0203
vn 0.0658 -0.9978 -0.0000
vn 0.0626 0.9978 -0.0203
vn 0.0532 0.9978 -0.0387
vn -0.0000 1.0000 -0.0000
vn 0.0387 0.9978 -0.0532
vn 0.0203 0.9978 -0.0626
vn -0.0000 0.9978 -0.0658
vn -0.0203 0.9978 -0.0626
vn -0.0387 0.9978 -0.0532
vn -0.0532 0.9978 -0.0387
vn -0.0626 0.9978 -0.0203
vn -0.0658 0.9978 -0.0000
vn -0.0626 0.9978 0.0203
vn -0.0532 0.9978 0.0387
vn -0.0387 0.9978 0.0532
vn -0.0203 0.9978 0.0626
vn -0.0000 0.9978 0.0658
vn 0.0203 0.9978 0.0626
vn 0.0387 0.9978 0.0532
vn 0.0532 0.9978 0.0387
vn 0.0626 0.9978 0.0203
vn 0.0658 0.9978 -0.0000
vn 0.9511 -0.0000 -0.3090
vn 0.8090 -0.0000 -0.5878
vn 0.5878 -0.0000 -0.8090
vn 0.5878 -0.0001 -0.8090
vn 0.3090 -0.0000 -0.9511
vn -0.0000 -0.0000 -1.0000
vn -0.3090 -0.0000 -0.9511
vn -0.5878 -0.0000 -0.8090
vn -0.8090 -0.0000 -0.5878
vn -0.9511 -0.0000 -0.3090
vn -1.0000 -0.0000 -0.0000
vn -0.9511 -0.0000 0.3090
vn -0.8090 -0.0000 0.5878
vn -0.5878 -0.0000 0.8090
vn -0.5879 -0.0000 0.8090
vn -0.5878 0.0001 0.8090
vn -0.3090 -0.0000 0.9511
vn -0.0000 -0.0000 1.0000
vn 0.3090 -0.0000 0.9511
vn 0.5878 -0.0000 0.8090
vn 0.5878 -0.0001 0.8090
vn 0.5879 -0.0000 0.8090
vn 0.8090 -0.0000 0.5878
vn 0.9511 -0.0000 0.3090
vn 1.0000 -0.0000 -0.0000
vn 0.5879 -0.0000 -0.8090
vn -0.5879 -0.0000 -0.8090
vt 0.277787 0.935409
vt 0.299442 0.892909
vt 0.154448 0.845798
vt 0.244059 0.969137
vt 0.201559 0.990792
vt 0.154448 0.998254
vt 0.107336 0.990792
vt 0.064837 0.969137
vt 0.031109 0.935409
vt 0.009454 0.892909
vt 0.001992 0.845798
vt 0.009454 0.798686
vt 0.031109 0.756186
vt 0.064837 0.722458
vt 0.107336 0.700804
vt 0.154448 0.693342
vt 0.201559 0.700804
vt 0.244059 0.722458
vt 0.277787 0.756186
vt 0.299442 0.798686
vt 0.306904 0.845798
vt 0.611469 0.798686
vt 0.589815 0.756186
vt 0.466475 0.845798
vt 0.556086 0.722458
vt 0.513587 0.700804
vt 0.466475 0.693342
vt 0.419364 0.700804
vt 0.376864 0.722458
vt 0.343136 0.756186
vt 0.321481 0.798686
vt 0.314019 0.845798
vt 0.321481 0.892909
vt 0.343136 0.935409
vt 0.376864 0.969137
vt 0.419364 0.990792
vt 0.466475 0.998254
vt 0.513587 0.990792
vt 0.556086 0.969137
vt 0.589815 0.935409
vt 0.611469 0.892909
vt 0.618931 0.845798
vt 0.612972 0.178545
vt 0.508039 0.254783
vt 0.631395 0.214702
vt 0.584277 0.149850
vt 0.548120 0.131427
vt 0.508039 0.125079
vt 0.467958 0.131427
vt 0.431801 0.149850
vt 0.403106 0.178545
vt 0.384683 0.214702
vt 0.378335 0.254783
vt 0.384683 0.294864
vt 0.403106 0.331021
vt 0.431801 0.359716
vt 0.467958 0.378139
vt 0.508039 0.384487
vt 0.548120 0.378139
vt 0.584277 0.359716
vt 0.612972 0.331021
vt 0.631395 0.294864
vt 0.637743 0.254783
vt 0.898401 0.294864
vt 0.775045 0.254783
vt 0.879978 0.331021
vt 0.851284 0.359716
vt 0.815126 0.378139
vt 0.775045 0.384487
vt 0.734964 0.378139
vt 0.698807 0.359716
vt 0.670112 0.331021
vt 0.651689 0.294864
vt 0.645341 0.254783
vt 0.651689 0.214702
vt 0.670112 0.178545
vt 0.698807 0.149850
vt 0.734964 0.131427
vt 0.775045 0.125079
vt 0.815126 0.131427
vt 0.851283 0.149850
vt 0.879978 0.178545
vt 0.898401 0.214702
vt 0.904749 0.254783
vt 0.796302 0.998254
vt 0.838802 0.998254
vt 0.838802 0.697382
vt 0.796302 0.697382
vt 0.872530 0.998254
vt 0.872530 0.697382
vt 0.948377 0.422689
vt 0.912710 0.422689
vt 0.912710 0.675187
vt 0.948377 0.675187
vt 0.873173 0.422689
vt 0.873173 0.675187
vt 0.833636 0.422689
vt 0.833636 0.675187
vt 0.797969 0.422689
vt 0.797969 0.675187
vt 0.585801 0.671797
vt 0.614107 0.671797
vt 0.614107 0.419298
vt 0.585801 0.419298
vt 0.649774 0.671797
vt 0.649774 0.419298
vt 0.689311 0.671797
vt 0.689311 0.419298
vt 0.728848 0.671797
vt 0.728848 0.419298
vt 0.764515 0.671797
vt 0.764515 0.419298
vt 0.792820 0.671797
vt 0.792820 0.419298
vt 0.430245 0.671797
vt 0.465912 0.671797
vt 0.465912 0.419298
vt 0.430245 0.419298
vt 0.505449 0.671797
vt 0.505449 0.419298
vt 0.544986 0.671797
vt 0.544986 0.419298
vt 0.580652 0.671797
vt 0.580652 0.419298
vt 0.625852 0.998254
vt 0.659580 0.998254
vt 0.659580 0.697382
vt 0.625852 0.697382
vt 0.702080 0.998254
vt 0.702080 0.697382
vt 0.749191 0.998254
vt 0.749191 0.697382
vt 0.229464 0.689350
vt 0.229464 0.429942
vt 0.193307 0.429942
vt 0.193307 0.689350
vt 0.164612 0.429942
vt 0.164612 0.689350
vt 0.158477 0.689350
vt 0.158477 0.429942
vt 0.122320 0.429942
vt 0.122320 0.689350
vt 0.082239 0.429942
vt 0.082239 0.689350
vt 0.042158 0.429942
vt 0.042158 0.689350
vt 0.006001 0.429942
vt 0.006001 0.689350
vt 0.211858 0.425951
vt 0.211858 0.166543
vt 0.183163 0.166543
vt 0.183163 0.425951
vt 0.147006 0.166543
vt 0.147006 0.425951
vt 0.106925 0.166543
vt 0.106925 0.425951
vt 0.066844 0.166543
vt 0.066844 0.425951
vt 0.030687 0.166543
vt 0.030687 0.425951
vt 0.001992 0.166543
vt 0.001992 0.425951
vt 0.218521 0.166542
vt 0.218521 0.425951
vt 0.254678 0.425951
vt 0.254678 0.166542
vt 0.294759 0.425951
vt 0.294759 0.166542
vt 0.334840 0.425951
vt 0.334840 0.166542
vt 0.370997 0.425951
vt 0.370997 0.166542
vt 0.374478 0.689350
vt 0.374478 0.429942
vt 0.345783 0.429942
vt 0.345783 0.689350
vt 0.309626 0.429942
vt 0.309626 0.689350
vt 0.269545 0.429942
vt 0.269545 0.689350
s 1
usemtl lambert1
f 5/5/2 6/6/3 7/7/4
f 8/8/5 5/5/2 7/7/4
f 9/9/6 8/8/5 7/7/4
f 10/10/7 9/9/6 7/7/4
f 11/11/8 10/10/7 7/7/4
f 12/12/9 11/11/8 7/7/4
f 13/13/10 12/12/9 7/7/4
f 14/14/11 13/13/10 7/7/4
f 15/15/12 14/14/11 7/7/4
f 16/16/13 15/15/12 7/7/4
f 17/17/14 16/16/13 7/7/4
f 18/18/15 17/17/14 7/7/4
f 19/19/16 18/18/15 7/7/4
f 20/20/17 19/19/16 7/7/4
f 21/21/18 20/20/17 7/7/4
f 22/22/19 21/21/18 7/7/4
f 23/23/20 22/22/19 7/7/4
f 24/24/21 23/23/20 7/7/4
f 25/25/22 24/24/21 7/7/4
f 6/6/3 25/25/22 7/7/4
f 26/26/23 27/27/24 28/28/25
f 27/27/24 29/29/26 28/28/25
f 29/29/26 30/30/27 28/28/25
f 30/30/27 31/31/28 28/28/25
f 31/31/28 32/32/29 28/28/25
f 32/32/29 33/33/30 28/28/25
f 33/33/30 34/34/31 28/28/25
f 34/34/31 35/35/32 28/28/25
f 35/35/32 36/36/33 28/28/25
f 36/36/33 37/37/34 28/28/25
f 37/37/34 38/38/35 28/28/25
f 38/38/35 39/39/36 28/28/25
f 39/39/36 40/40/37 28/28/25
f 40/40/37 41/41/38 28/28/25
f 41/41/38 42/42/39 28/28/25
f 42/42/39 43/43/40 28/28/25
f 43/43/40 44/44/41 28/28/25
f 44/44/41 45/45/42 28/28/25
f 45/45/42 46/46/43 28/28/25
f 46/46/43 26/26/23 28/28/25
f 47/47/25 48/48/25 49/49/25
f 50/50/25 48/48/25 47/47/25
f 51/51/25 48/48/25 50/50/25
f 52/52/25 48/48/25 51/51/25
f 53/53/25 48/48/25 52/52/25
f 54/54/25 48/48/25 53/53/25
f 55/55/25 48/48/25 54/54/25
f 56/56/25 48/48/25 55/55/25
f 57/57/25 48/48/25 56/56/25
f 58/58/25 48/48/25 57/57/25
f 59/59/25 48/48/25 58/58/25
f 60/60/25 48/48/25 59/59/25
f 61/61/25 48/48/25 60/60/25
f 62/62/25 48/48/25 61/61/25
f 63/63/25 48/48/25 62/62/25
f 64/64/25 48/48/25 63/63/25
f 65/65/25 48/48/25 64/64/25
f 66/66/25 48/48/25 65/65/25
f 67/67/25 48/48/25 66/66/25
f 49/49/25 48/48/25 67/67/25
f 68/68/4 69/69/4 70/70/4
f 70/70/4 69/69/4 71/71/4
f 71/71/4 69/69/4 72/72/4
f 72/72/4 69/69/4 73/73/4
f 73/73/4 69/69/4 74/74/4
f 74/74/4 69/69/4 75/75/4
f 75/75/4 69/69/4 76/76/4
f 76/76/4 69/69/4 77/77/4
f 77/77/4 69/69/4 78/78/4
f 78/78/4 69/69/4 79/79/4
f 79/79/4 69/69/4 80/80/4
f 80/80/4 69/69/4 81/81/4
f 81/81/4 69/69/4 82/82/4
f 82/82/4 69/69/4 83/83/4
f 83/83/4 69/69/4 84/84/4
f 84/84/4 69/69/4 85/85/4
f 85/85/4 69/69/4 86/86/4
f 86/86/4 69/69/4 87/87/4
f 87/87/4 69/69/4 88/88/4
f 88/88/4 69/69/4 68/68/4
f 89/89/44 90/90/45 91/91/45
f 89/89/44 91/91/45 92/92/44
f 90/90/45 93/93/46 94/94/47
f 90/90/45 94/94/47 91/91/45
f 95/95/46 96/96/48 97/97/48
f 95/95/46 97/97/48 98/98/46
f 96/96/48 99/99/49 100/100/49
f 96/96/48 100/100/49 97/97/48
f 99/99/49 101/101/50 102/102/50
f 99/99/49 102/102/50 100/100/49
f 101/101/50 103/103/51 104/104/51
f 101/101/50 104/104/51 102/102/50
f 105/105/51 106/106/52 107/107/52
f 105/105/51 107/107/52 108/108/51
f 106/106/52 109/109/53 110/110/53
f 106/106/52 110/110/53 107/107/52
f 109/109/53 111/111/54 112/112/54
f 109/109/53 112/112/54 110/110/53
f 111/111/54 113/113/55 114/114/55
f 111/111/54 114/114/55 112/112/54
f 113/113/55 115/115/56 116/116/56
f 113/113/55 116/116/56 114/114/55
f 115/115/56 117/117/57 118/118/58
f 115/115/56 118/118/58 116/116/56
f 119/119/59 120/120/60 121/121/60
f 119/119/59 121/121/60 122/122/57
f 120/120/60 123/123/61 124/124/61
f 120/120/60 124/124/61 121/121/60
f 123/123/61 125/125/62 126/126/62
f 123/123/61 126/126/62 124/124/61
f 125/125/62 127/127/63 128/128/64
f 125/125/62 128/128/64 126/126/62
f 129/129/65 130/130/66 131/131/66
f 129/129/65 131/131/66 132/132/63
f 130/130/66 133/133/67 134/134/67
f 130/130/66 134/134/67 131/131/66
f 133/133/67 135/135/68 136/136/68
f 133/133/67 136/136/68 134/134/67
f 135/135/68 89/89/44 92/92/44
f 135/135/68 92/92/44 136/136/68
f 137/137/55 138/138/55 139/139/56
f 137/137/55 139/139/56 140/140/56
f 140/140/56 139/139/56 141/141/58
f 140/140/56 141/141/58 142/142/57
f 143/143/57 144/144/57 145/145/60
f 143/143/57 145/145/60 146/146/60
f 146/146/60 145/145/60 147/147/61
f 146/146/60 147/147/61 148/148/61
f 148/148/61 147/147/61 149/149/62
f 148/148/61 149/149/62 150/150/62
f 150/150/62 149/149/62 151/151/63
f 150/150/62 151/151/63 152/152/63
f 153/153/65 154/154/65 155/155/66
f 153/153/65 155/155/66 156/156/66
f 156/156/66 155/155/66 157/157/67
f 156/156/66 157/157/67 158/158/67
f 158/158/67 157/157/67 159/159/68
f 158/158/67 159/159/68 160/160/68
f 160/160/68 159/159/68 161/161/44
f 160/160/68 161/161/44 162/162/44
f 162/162/44 161/161/44 163/163/45
f 162/162/44 163/163/45 164/164/45
f 164/164/45 163/163/45 165/165/69
f 164/164/45 165/165/69 166/166/69
f 167/167/46 168/168/46 169/169/48
f 167/167/46 169/169/48 170/170/48
f 170/170/48 169/169/48 171/171/49
f 170/170/48 171/171/49 172/172/49
f 172/172/49 171/171/49 173/173/50
f 172/172/49 173/173/50 174/174/50
f 174/174/50 173/173/50 175/175/51
f 174/174/50 175/175/51 176/176/51
f 177/177/70 178/178/70 179/179/52
f 177/177/70 179/179/52 180/180/52
f 180/180/52 179/179/52 181/181/53
f 180/180/52 181/181/53 182/182/53
f 182/182/53 181/181/53 183/183/54
f 182/182/53 183/183/54 184/184/54
f 184/184/54 183/183/54 138/138/55
f 184/184/54 138/138/55 137/137/55
